<?xml version="1.0" encoding="UTF-8" standalone="no"?>
<!DOCTYPE svg PUBLIC "-//W3C//DTD SVG 1.1//EN"
 "http://www.w3.org/Graphics/SVG/1.1/DTD/svg11.dtd">
<!-- Generated by graphviz version 2.40.1 (20161225.0304)
 -->
<!-- Title: G Pages: 1 -->
<svg width="316pt" height="594pt"
 viewBox="0.00 0.00 316.00 594.00" xmlns="http://www.w3.org/2000/svg" xmlns:xlink="http://www.w3.org/1999/xlink">
<g id="graph0" class="graph" transform="scale(1 1) rotate(0) translate(4 590)">
<title>G</title>
<polygon fill="#ffffff" stroke="transparent" points="-4,4 -4,-590 312,-590 312,4 -4,4"/>
<text text-anchor="middle" x="154" y="-570.8" font-family="Times,serif" font-size="14.00" fill="#000000">Docker environment setup</text>
<g id="clust1" class="cluster">
<title>cluster_0</title>
<polygon fill="none" stroke="#000000" points="8,-8 8,-556 300,-556 300,-8 8,-8"/>
<text text-anchor="middle" x="154" y="-540.8" font-family="Times,serif" font-size="14.00" fill="#000000">Host</text>
</g>
<g id="clust2" class="cluster">
<title>cluster_1</title>
<polygon fill="#d3d3d3" stroke="#d3d3d3" points="16,-16 16,-291 292,-291 292,-16 16,-16"/>
<text text-anchor="middle" x="154" y="-275.8" font-family="Times,serif" font-size="14.00" fill="#000000">Docker</text>
</g>
<!-- jenkins&#45;master -->
<g id="node1" class="node">
<title>jenkins&#45;master</title>
<polygon fill="#ffffff" stroke="#000000" points="171.4218,-261 76.5782,-261 72.5782,-257 72.5782,-225 167.4218,-225 171.4218,-229 171.4218,-261"/>
<polyline fill="none" stroke="#000000" points="167.4218,-257 72.5782,-257 "/>
<polyline fill="none" stroke="#000000" points="167.4218,-257 167.4218,-225 "/>
<polyline fill="none" stroke="#000000" points="167.4218,-257 171.4218,-261 "/>
<text text-anchor="middle" x="122" y="-238.8" font-family="Times,serif" font-size="14.00" fill="#000000">jenkins&#45;master</text>
</g>
<!-- git&#45;server -->
<g id="node2" class="node">
<title>git&#45;server</title>
<polygon fill="#ffffff" stroke="#000000" points="283.6425,-60 218.3575,-60 214.3575,-56 214.3575,-24 279.6425,-24 283.6425,-28 283.6425,-60"/>
<polyline fill="none" stroke="#000000" points="279.6425,-56 214.3575,-56 "/>
<polyline fill="none" stroke="#000000" points="279.6425,-56 279.6425,-24 "/>
<polyline fill="none" stroke="#000000" points="279.6425,-56 283.6425,-60 "/>
<text text-anchor="middle" x="249" y="-37.8" font-family="Times,serif" font-size="14.00" fill="#000000">git&#45;server</text>
</g>
<!-- jenkins&#45;master&#45;&gt;git&#45;server -->
<g id="edge1" class="edge">
<title>jenkins&#45;master&#45;&gt;git&#45;server</title>
<path fill="none" stroke="#000000" d="M133.517,-224.9907C145.3786,-205.5515 163.4407,-173.2939 173,-143 174.0805,-139.5759 172.8914,-138.372 174.125,-135 184.4095,-106.8889 190.8642,-101.0179 210,-78 213.0779,-74.2977 216.524,-70.6071 220.0598,-67.0775"/>
<polygon fill="#000000" stroke="#000000" points="222.5427,-69.546 227.3543,-60.1067 217.7065,-64.4852 222.5427,-69.546"/>
<text text-anchor="middle" x="194.4375" y="-136.6" font-family="Times,serif" font-size="8.00" fill="#000000">git&#45;server:22</text>
</g>
<!-- test&#45;server -->
<g id="node3" class="node">
<title>test&#45;server</title>
<polygon fill="#ffffff" stroke="#000000" points="98.3043,-60 27.6957,-60 23.6957,-56 23.6957,-24 94.3043,-24 98.3043,-28 98.3043,-60"/>
<polyline fill="none" stroke="#000000" points="94.3043,-56 23.6957,-56 "/>
<polyline fill="none" stroke="#000000" points="94.3043,-56 94.3043,-24 "/>
<polyline fill="none" stroke="#000000" points="94.3043,-56 98.3043,-60 "/>
<text text-anchor="middle" x="61" y="-37.8" font-family="Times,serif" font-size="14.00" fill="#000000">test&#45;server</text>
</g>
<!-- jenkins&#45;master&#45;&gt;test&#45;server -->
<g id="edge2" class="edge">
<title>jenkins&#45;master&#45;&gt;test&#45;server</title>
<path fill="none" stroke="#000000" d="M72.7013,-225.3304C56.2383,-216.051 42,-202.6381 42,-184 42,-184 42,-184 42,-97.5 42,-88.1025 44.4685,-78.269 47.6259,-69.5347"/>
<polygon fill="#000000" stroke="#000000" points="50.8874,-70.8054 51.3887,-60.2224 44.3972,-68.1829 50.8874,-70.8054"/>
<text text-anchor="middle" x="63.7695" y="-136.6" font-family="Times,serif" font-size="8.00" fill="#000000">test&#45;server:23</text>
</g>
<!-- prod&#45;server -->
<g id="node4" class="node">
<title>prod&#45;server</title>
<polygon fill="#ffffff" stroke="#000000" points="196.0258,-60 119.9742,-60 115.9742,-56 115.9742,-24 192.0258,-24 196.0258,-28 196.0258,-60"/>
<polyline fill="none" stroke="#000000" points="192.0258,-56 115.9742,-56 "/>
<polyline fill="none" stroke="#000000" points="192.0258,-56 192.0258,-24 "/>
<polyline fill="none" stroke="#000000" points="192.0258,-56 196.0258,-60 "/>
<text text-anchor="middle" x="156" y="-37.8" font-family="Times,serif" font-size="14.00" fill="#000000">prod&#45;server</text>
</g>
<!-- jenkins&#45;master&#45;&gt;prod&#45;server -->
<g id="edge3" class="edge">
<title>jenkins&#45;master&#45;&gt;prod&#45;server</title>
<path fill="none" stroke="#000000" d="M122,-224.9245C122,-213.2475 122,-197.7257 122,-184 122,-184 122,-184 122,-97.5 122,-87.1607 126.3435,-77.1223 131.9256,-68.4905"/>
<polygon fill="#000000" stroke="#000000" points="134.7765,-70.5211 137.8056,-60.3685 129.1063,-66.4162 134.7765,-70.5211"/>
<text text-anchor="middle" x="145.5469" y="-136.6" font-family="Times,serif" font-size="8.00" fill="#000000">prod&#45;server:24</text>
</g>
<!-- ssh -->
<g id="node5" class="node">
<title>ssh</title>
<ellipse fill="none" stroke="#000000" cx="234" cy="-508" rx="27" ry="18"/>
<text text-anchor="middle" x="234" y="-503.8" font-family="Times,serif" font-size="14.00" fill="#000000">ssh</text>
</g>
<!-- localhost&#45;to&#45;git -->
<g id="node6" class="node">
<title>localhost&#45;to&#45;git</title>
<path fill="none" stroke="#000000" d="M219,-363.5C219,-363.5 249,-363.5 249,-363.5 255,-363.5 261,-369.5 261,-375.5 261,-375.5 261,-395.5 261,-395.5 261,-401.5 255,-407.5 249,-407.5 249,-407.5 219,-407.5 219,-407.5 213,-407.5 207,-401.5 207,-395.5 207,-395.5 207,-375.5 207,-375.5 207,-369.5 213,-363.5 219,-363.5"/>
<text text-anchor="middle" x="234" y="-392.3" font-family="Times,serif" font-size="14.00" fill="#000000">2222</text>
<polyline fill="none" stroke="#000000" points="207,-385.5 261,-385.5 "/>
<text text-anchor="middle" x="234" y="-370.3" font-family="Times,serif" font-size="14.00" fill="#000000">22</text>
</g>
<!-- ssh&#45;&gt;localhost&#45;to&#45;git -->
<g id="edge4" class="edge">
<title>ssh&#45;&gt;localhost&#45;to&#45;git</title>
<path fill="none" stroke="#000000" d="M234,-489.9247C234,-470.9944 234,-440.869 234,-417.8295"/>
<polygon fill="#000000" stroke="#000000" points="237.5001,-417.8081 234,-407.8082 230.5001,-417.8082 237.5001,-417.8081"/>
<text text-anchor="middle" x="257.5527" y="-446.6" font-family="Times,serif" font-size="8.00" fill="#000000">localhost:2222</text>
</g>
<!-- localhost&#45;to&#45;git&#45;&gt;git&#45;server -->
<g id="edge5" class="edge">
<title>localhost&#45;to&#45;git&#45;&gt;git&#45;server</title>
<path fill="none" stroke="#000000" d="M234,-363.4594C234,-351.2429 234,-335.7804 234,-322 234,-322 234,-322 234,-206.5 234,-158.5772 240.3916,-103.1245 244.8304,-70.3929"/>
<polygon fill="#000000" stroke="#000000" points="248.336,-70.5946 246.2488,-60.2074 241.4029,-69.6291 248.336,-70.5946"/>
<text text-anchor="middle" x="263.0605" y="-181.6" font-family="Times,serif" font-size="8.00" fill="#000000">&lt;container IP&gt;:22</text>
</g>
<!-- localhost&#45;to&#45;jenkins -->
<g id="node7" class="node">
<title>localhost&#45;to&#45;jenkins</title>
<path fill="none" stroke="#000000" d="M107,-363.5C107,-363.5 137,-363.5 137,-363.5 143,-363.5 149,-369.5 149,-375.5 149,-375.5 149,-395.5 149,-395.5 149,-401.5 143,-407.5 137,-407.5 137,-407.5 107,-407.5 107,-407.5 101,-407.5 95,-401.5 95,-395.5 95,-395.5 95,-375.5 95,-375.5 95,-369.5 101,-363.5 107,-363.5"/>
<text text-anchor="middle" x="122" y="-392.3" font-family="Times,serif" font-size="14.00" fill="#000000">80</text>
<polyline fill="none" stroke="#000000" points="95,-385.5 149,-385.5 "/>
<text text-anchor="middle" x="122" y="-370.3" font-family="Times,serif" font-size="14.00" fill="#000000">8080</text>
</g>
<!-- localhost&#45;to&#45;jenkins&#45;&gt;jenkins&#45;master -->
<g id="edge6" class="edge">
<title>localhost&#45;to&#45;jenkins&#45;&gt;jenkins&#45;master</title>
<path fill="none" stroke="#000000" d="M122,-363.2344C122,-338.4669 122,-298.3935 122,-271.3904"/>
<polygon fill="#000000" stroke="#000000" points="125.5001,-271.0477 122,-261.0477 118.5001,-271.0478 125.5001,-271.0477"/>
<text text-anchor="middle" x="155.0605" y="-319.6" font-family="Times,serif" font-size="8.00" fill="#000000">&lt;container IP&gt;:8080</text>
</g>
<!-- browser -->
<g id="node8" class="node">
<title>browser</title>
<ellipse fill="none" stroke="#000000" cx="122" cy="-508" rx="38.6869" ry="18"/>
<text text-anchor="middle" x="122" y="-503.8" font-family="Times,serif" font-size="14.00" fill="#000000">browser</text>
</g>
<!-- browser&#45;&gt;localhost&#45;to&#45;jenkins -->
<g id="edge7" class="edge">
<title>browser&#45;&gt;localhost&#45;to&#45;jenkins</title>
<path fill="none" stroke="#000000" d="M122,-489.9247C122,-470.9944 122,-440.869 122,-417.8295"/>
<polygon fill="#000000" stroke="#000000" points="125.5001,-417.8081 122,-407.8082 118.5001,-417.8082 125.5001,-417.8081"/>
<text text-anchor="middle" x="141.5527" y="-446.6" font-family="Times,serif" font-size="8.00" fill="#000000">localhost:80</text>
</g>
</g>
</svg>
